<svg width="25" height="21" viewBox="0 0 25 21" fill="none" xmlns="http://www.w3.org/2000/svg">
<path d="M9.60007 20.6101C10.1101 20.8901 10.7301 20.8901 11.2401 20.6101C11.6901 20.3501 11.9501 19.8601 11.9201 19.3501C11.9001 18.5201 11.2101 17.8701 10.3901 17.8901C9.59007 17.9101 8.95008 18.5501 8.93008 19.3501C8.90008 19.8601 9.16007 20.3501 9.61007 20.6001L9.60007 20.6101Z" fill="#5B5B5B"/>
<path d="M19.3491 20.8102C20.1291 20.8602 20.8091 20.2602 20.8491 19.4802C20.8491 19.4402 20.8491 19.3902 20.8491 19.3502C20.8691 18.5502 20.2491 17.8902 19.4491 17.8702C19.4191 17.8702 19.3791 17.8702 19.3491 17.8702C18.5591 17.8402 17.8991 18.4502 17.8691 19.2402C17.8691 19.2802 17.8691 19.3202 17.8691 19.3502C17.8291 20.1202 18.4291 20.7802 19.2091 20.8102C19.2591 20.8102 19.3091 20.8102 19.3491 20.8102Z" fill="#5B5B5B"/>
<path d="M9.00999 15.25C9.07999 15.4 9.18001 15.52 9.32001 15.61C9.46001 15.7 9.62001 15.75 9.79001 15.75H19.99C20.33 15.75 20.63 15.55 20.77 15.24L24.6 6.29C24.72 6.03 24.7 5.72 24.53 5.48C24.38 5.24 24.12 5.1 23.84 5.11H6.28L4.19 0.5C4.12 0.35 4.02 0.23 3.88 0.14C3.74 0.05 3.58 0 3.41 0H0V1.71H2.87L9.02 15.25H9.00999ZM22.5 6.81L19.42 14.01H10.33L7.05 6.81H22.5Z" fill="#5B5B5B"/>
</svg>
