<svg width="20" height="21" viewBox="0 0 20 21" fill="none" xmlns="http://www.w3.org/2000/svg">
<path d="M12.2625 14.11C14.0125 14.11 15.6725 14.85 16.8325 16.15C17.9925 17.49 18.5725 19.23 18.4725 21H19.9225C20.0425 18.83 19.2925 16.7 17.8225 15.09C16.4225 13.5 14.3825 12.6 12.2625 12.66H7.68246C5.56246 12.62 3.53246 13.51 2.11246 15.09C0.642462 16.7 -0.107537 18.83 0.0124635 21H1.46246C1.36246 19.23 1.94246 17.49 3.10246 16.15C4.26246 14.85 5.92246 14.11 7.67246 14.11H12.2525H12.2625Z" fill="#5B5B5B"/>
<path d="M9.98208 0.000282876C7.04208 -0.0297171 4.62208 2.33028 4.59208 5.27028C4.56208 8.21028 6.92208 10.6303 9.86208 10.6603C12.8021 10.6903 15.2221 8.33028 15.2521 5.39028C15.2521 5.37028 15.2521 5.36028 15.2521 5.34028C15.3221 2.47028 13.0621 0.0802829 10.1821 0.0102829C10.1121 0.0102829 10.0421 0.0102829 9.97208 0.0102829L9.98208 0.000282876ZM9.99208 9.21028H9.97208C7.85208 9.21028 6.14208 7.48028 6.14208 5.36028C6.14208 3.24028 7.87208 1.53028 9.99208 1.53028C12.1121 1.53028 13.8221 3.26028 13.8221 5.38028C13.8221 7.49028 12.1021 9.20028 9.99208 9.21028Z" fill="#5B5B5B"/>
</svg>
