<svg width="76" height="75" viewBox="0 0 76 75" fill="none" xmlns="http://www.w3.org/2000/svg">
<g clip-path="url(#clip0_386_996)">
<path d="M15.619 54.9562C10.8997 49.5641 8.02325 42.4441 8.02325 34.644C8.02325 17.8627 21.3341 4.21076 37.6959 4.21076C54.0578 4.21076 67.3686 17.8627 67.3686 34.644C67.3686 42.4441 64.4922 49.5641 59.7729 54.9562H60.6648C65.2567 49.5012 68.0388 42.4005 68.0388 34.644C68.0388 17.4852 54.4283 3.52344 37.6959 3.52344C20.9636 3.52344 7.35547 17.4852 7.35547 34.644C7.35547 42.4005 10.1375 49.5012 14.7294 54.9562H15.6213H15.619Z" fill="#484848"/>
<path d="M58.5126 7.35958C58.3356 7.21679 58.1586 7.07642 57.9793 6.93848L57.5781 7.48785C57.7551 7.62338 57.9274 7.76132 58.102 7.89927L58.5149 7.35958H58.5126Z" fill="#484848"/>
<path d="M54.019 4.30816C53.8231 4.19684 53.6249 4.08793 53.4267 3.98145L53.1152 4.5889C53.3087 4.69296 53.5022 4.80187 53.6957 4.91078L54.019 4.31058V4.30816Z" fill="#484848"/>
<path d="M65.7383 53.9639L65.1838 53.5791C65.0611 53.7655 64.936 53.9518 64.8086 54.1382L65.356 54.5326C65.4858 54.3439 65.6109 54.1551 65.7383 53.9639Z" fill="#484848"/>
<path d="M56.325 5.74036C56.1386 5.61451 55.9498 5.48866 55.761 5.36523L55.4023 5.94365C55.5888 6.06465 55.7728 6.18808 55.9569 6.31151L56.3273 5.74036H56.325Z" fill="#484848"/>
<path d="M35.8856 0.73568L35.8502 0.0507812C35.6261 0.0628819 35.4019 0.0774027 35.1777 0.0943437L35.2273 0.779242C35.4467 0.762301 35.6662 0.74778 35.888 0.73568H35.8856Z" fill="#484848"/>
<path d="M62.479 11.104C62.3256 10.9346 62.1723 10.7676 62.0165 10.6006L61.5352 11.0774C61.6885 11.2395 61.8396 11.4041 61.9882 11.5711L62.479 11.104Z" fill="#484848"/>
<path d="M64.236 13.2086C64.0968 13.0271 63.9552 12.848 63.8136 12.6689L63.2969 13.1046C63.4361 13.2788 63.5753 13.4555 63.7122 13.6322L64.236 13.2062V13.2086Z" fill="#484848"/>
<path d="M51.6122 3.0664C51.4092 2.97202 51.2039 2.88005 50.9987 2.78809L50.7344 3.41732C50.9373 3.50687 51.1379 3.59641 51.3385 3.6908L51.6145 3.0664H51.6122Z" fill="#484848"/>
<path d="M38.5479 0.00968054C38.3237 0.00484027 38.0996 0 37.873 0V0.684898C38.0901 0.684898 38.3096 0.689739 38.5314 0.694579L38.5479 0.00968054Z" fill="#484848"/>
<path d="M43.9107 0.585384C43.6889 0.544241 43.4694 0.503099 43.2453 0.466797L43.1367 1.14443C43.3538 1.18074 43.5709 1.21946 43.788 1.2606L43.9107 0.585384Z" fill="#484848"/>
<path d="M41.2404 0.188391C41.0163 0.164189 40.7945 0.142408 40.5703 0.123047L40.5137 0.805525C40.7331 0.824886 40.9526 0.846667 41.172 0.868449L41.2404 0.18597V0.188391Z" fill="#484848"/>
<path d="M49.1171 2.03023C48.9047 1.95278 48.6947 1.87776 48.4799 1.80273L48.2676 2.45375C48.4776 2.52636 48.6852 2.60138 48.8929 2.6764L49.1194 2.03023H49.1171Z" fill="#484848"/>
<path d="M46.543 1.20062C46.3259 1.14011 46.1088 1.08203 45.8894 1.02637L45.7266 1.6919C45.9413 1.74757 46.1537 1.80323 46.366 1.86373L46.5406 1.20062H46.543Z" fill="#484848"/>
<path d="M60.5689 9.15072C60.4037 8.99583 60.2362 8.84095 60.0686 8.68848L59.625 9.20155C59.7902 9.35159 59.953 9.50164 60.1158 9.65653L60.5689 9.15072Z" fill="#484848"/>
<path d="M69.5942 43.7773C69.5352 43.9952 69.4739 44.213 69.4102 44.4284L70.0496 44.6268C70.1133 44.4066 70.177 44.1839 70.236 43.9613L69.5919 43.7773H69.5942Z" fill="#484848"/>
<path d="M70.2329 28.3201L70.8912 28.1942C70.8488 27.9667 70.8063 27.7417 70.7591 27.5166L70.1055 27.657C70.1503 27.8772 70.1928 28.0999 70.2352 28.3225L70.2329 28.3201Z" fill="#484848"/>
<path d="M65.8203 15.4501C65.6953 15.2589 65.5678 15.0677 65.4404 14.8789L64.8906 15.271C65.0157 15.4573 65.1407 15.6437 65.2634 15.8324L65.8203 15.4525V15.4501Z" fill="#484848"/>
<path d="M69.6387 25.6781L70.2829 25.4966C70.2239 25.2739 70.1626 25.0513 70.0989 24.8311L69.457 25.0247C69.5184 25.2425 69.5797 25.4579 69.6364 25.6781H69.6387Z" fill="#484848"/>
<path d="M70.7931 33.712L71.4609 33.6927C71.4538 33.4628 71.4467 33.2328 71.4373 33.0029L70.7695 33.0344C70.779 33.2595 70.7884 33.487 70.7931 33.712Z" fill="#484848"/>
<path d="M70.6185 31.0041L71.2839 30.9315C71.2603 30.7015 71.2343 30.4716 71.206 30.2441L70.543 30.3313C70.5713 30.5539 70.5972 30.779 70.6185 31.0041Z" fill="#484848"/>
<path d="M70.0684 41.8003L70.722 41.9431C70.7692 41.718 70.814 41.4929 70.8565 41.2655L70.2005 41.1348C70.158 41.3574 70.1132 41.5777 70.0684 41.8003Z" fill="#484848"/>
<path d="M67.2296 17.8145C67.121 17.6137 67.0078 17.4128 66.8945 17.2119L66.3164 17.558C66.4273 17.754 66.5359 17.9501 66.6444 18.1485L67.2296 17.8145Z" fill="#484848"/>
<path d="M68.3779 49.1503L67.7714 48.8623C67.6794 49.068 67.585 49.2713 67.4883 49.4722L68.09 49.7723C68.1891 49.5666 68.2835 49.3584 68.3779 49.1479V49.1503Z" fill="#484848"/>
<path d="M67.155 51.6118L66.5721 51.2754C66.4636 51.4714 66.355 51.6675 66.2441 51.8611L66.8199 52.2096C66.9332 52.0111 67.0464 51.8127 67.155 51.6118Z" fill="#484848"/>
<path d="M68.4478 20.2904C68.3534 20.0798 68.259 19.8693 68.1623 19.6611L67.5605 19.9588C67.6573 20.1621 67.7493 20.3678 67.8413 20.5735L68.4501 20.2879L68.4478 20.2904Z" fill="#484848"/>
<path d="M69.4101 46.5975L68.7824 46.3604C68.7069 46.5733 68.6291 46.7839 68.5488 46.9944L69.1718 47.2437C69.2544 47.0283 69.3322 46.8129 69.4101 46.5975Z" fill="#484848"/>
<path d="M69.4683 22.858C69.3904 22.6402 69.3125 22.4224 69.2323 22.207L68.6094 22.4539C68.6896 22.6644 68.7651 22.8774 68.8406 23.0904L69.4706 22.858H69.4683Z" fill="#484848"/>
<path d="M20.8265 5.41864L20.4844 4.82812C20.2909 4.94671 20.0974 5.0653 19.9062 5.1863L20.2578 5.76956C20.4443 5.65097 20.633 5.53238 20.8242 5.41622L20.8265 5.41864Z" fill="#484848"/>
<path d="M5.50736 26.6529L4.8561 26.4932C4.80418 26.7158 4.75227 26.9409 4.70508 27.166L5.3587 27.3136C5.4059 27.0934 5.45545 26.8731 5.50736 26.6529Z" fill="#484848"/>
<path d="M6.23221 24.044L5.59746 23.8311C5.52667 24.0489 5.4606 24.2691 5.39453 24.4918L6.034 24.6926C6.09771 24.4772 6.16614 24.2618 6.23457 24.0464L6.23221 24.044Z" fill="#484848"/>
<path d="M4.99028 29.3155L4.32957 29.209C4.29418 29.4365 4.26114 29.664 4.23047 29.8939L4.89353 29.9883C4.92421 29.7632 4.95488 29.5405 4.99028 29.3179V29.3155Z" fill="#484848"/>
<path d="M5.86439 46.2633L6.49441 46.0334C6.42127 45.8204 6.34812 45.605 6.27733 45.3896L5.64258 45.6075C5.71337 45.8277 5.78652 46.0455 5.86203 46.2633H5.86439Z" fill="#484848"/>
<path d="M7.15782 21.5055L6.54195 21.2393C6.45465 21.4498 6.3697 21.6628 6.28711 21.8782L6.9077 22.1323C6.98793 21.9217 7.07288 21.7136 7.15782 21.5079V21.5055Z" fill="#484848"/>
<path d="M4.68332 32.0083L4.01554 31.9551C3.99902 32.185 3.9825 32.4149 3.9707 32.6448L4.63849 32.6835C4.65028 32.4585 4.6668 32.231 4.68332 32.0059V32.0083Z" fill="#484848"/>
<path d="M70.518 39.1289L71.1811 39.2184C71.2094 38.9909 71.2377 38.761 71.2613 38.5311L70.5959 38.4561C70.5723 38.6811 70.5439 38.9062 70.5156 39.1289H70.518Z" fill="#484848"/>
<path d="M4.5877 34.7217H3.91992C3.91992 34.954 3.92228 35.1839 3.927 35.4138L4.59478 35.3993C4.59006 35.1742 4.5877 34.9468 4.5877 34.7217Z" fill="#484848"/>
<path d="M5.54344 42.7832L4.89453 42.9478C4.9488 43.1728 5.00308 43.3955 5.06207 43.6181L5.70861 43.4415C5.65198 43.2237 5.59771 43.0059 5.54344 42.7856V42.7832Z" fill="#484848"/>
<path d="M70.7617 36.4257L71.4295 36.462C71.4413 36.2321 71.4507 36.0022 71.4578 35.7698L70.79 35.748C70.783 35.9755 70.7735 36.2006 70.7617 36.4257Z" fill="#484848"/>
<path d="M6.87333 48.8363L7.48212 48.5556C7.39245 48.3499 7.30279 48.1417 7.21548 47.9336L6.59961 48.2022C6.68692 48.4152 6.77894 48.6258 6.87097 48.8387L6.87333 48.8363Z" fill="#484848"/>
<path d="M5.01422 40.126L4.35352 40.2349C4.38891 40.4624 4.42666 40.6899 4.46914 40.9174L5.12748 40.7939C5.08737 40.5713 5.04961 40.3486 5.01422 40.126Z" fill="#484848"/>
<path d="M4.69708 37.4326L4.0293 37.4883C4.04817 37.7182 4.06705 37.9481 4.09065 38.178L4.75607 38.1078C4.73483 37.8828 4.7136 37.6577 4.69708 37.4326Z" fill="#484848"/>
<path d="M8.27558 19.0509L7.68094 18.7363C7.57712 18.9396 7.47801 19.1453 7.37891 19.351L7.97826 19.6536C8.07501 19.4503 8.17411 19.2494 8.27558 19.0509Z" fill="#484848"/>
<path d="M16.5064 8.55005L16.0769 8.02246C15.9047 8.17009 15.7324 8.32014 15.5625 8.47019L16.0014 8.98809C16.1689 8.84047 16.3365 8.69284 16.504 8.54763L16.5064 8.55005Z" fill="#484848"/>
<path d="M23.1568 4.12592L22.8619 3.50879C22.659 3.61043 22.4584 3.7145 22.2578 3.82099L22.5646 4.43086C22.7604 4.32679 22.9586 4.22515 23.1568 4.12592Z" fill="#484848"/>
<path d="M18.6043 6.89694L18.2174 6.33789C18.0333 6.471 17.8516 6.60653 17.6699 6.74205L18.0663 7.29384C18.2433 7.16074 18.4227 7.02763 18.602 6.89694H18.6043Z" fill="#484848"/>
<path d="M25.5821 3.02954L25.3367 2.39062C25.1266 2.47533 24.9166 2.56245 24.709 2.652L24.9662 3.28608C25.1691 3.19895 25.3744 3.11425 25.5797 3.02954H25.5821Z" fill="#484848"/>
<path d="M30.6476 1.45651L30.506 0.786133C30.2866 0.834536 30.0671 0.885358 29.8477 0.938601L30.0034 1.60656C30.2181 1.55332 30.4329 1.50491 30.6476 1.45651Z" fill="#484848"/>
<path d="M33.2535 0.989628L33.1639 0.30957C32.9397 0.341032 32.7179 0.372494 32.4961 0.408796L32.5976 1.08643C32.8146 1.05255 33.0317 1.01867 33.2512 0.989628H33.2535Z" fill="#484848"/>
<path d="M28.0861 2.1373L27.8926 1.48145C27.6756 1.54921 27.4608 1.61697 27.2461 1.68958L27.4537 2.34301C27.6638 2.27283 27.8761 2.20507 28.0861 2.13972V2.1373Z" fill="#484848"/>
<path d="M14.5435 10.3702L14.0763 9.87891C13.9158 10.0411 13.7577 10.2032 13.5996 10.3678L14.0763 10.8494C14.2296 10.6872 14.3877 10.5275 14.5435 10.3702Z" fill="#484848"/>
<path d="M9.58238 16.699L9.0137 16.3359C8.89572 16.532 8.77773 16.728 8.66211 16.924L9.23551 17.2749C9.34877 17.0813 9.46203 16.8877 9.58002 16.6965L9.58238 16.699Z" fill="#484848"/>
<path d="M8.08068 51.317L8.66587 50.9855C8.55969 50.787 8.45586 50.5886 8.35204 50.3877L7.75977 50.7047C7.86359 50.9104 7.97213 51.1137 8.08068 51.3146V51.317Z" fill="#484848"/>
<path d="M9.47512 53.688L10.0344 53.3104C9.91402 53.1216 9.79368 52.9304 9.67569 52.7393L9.10938 53.1047C9.22972 53.3007 9.35242 53.4943 9.47512 53.6855V53.688Z" fill="#484848"/>
<path d="M11.0688 14.4578L10.5308 14.0488C10.3963 14.2328 10.2665 14.4191 10.1367 14.6079L10.6818 15.0048C10.8092 14.8209 10.939 14.6369 11.0688 14.4578Z" fill="#484848"/>
<path d="M12.7267 12.3427L12.2217 11.8926C12.073 12.0668 11.9291 12.2411 11.7852 12.4177L12.2972 12.8582C12.4388 12.684 12.5827 12.5146 12.7267 12.3427Z" fill="#484848"/>
<path d="M0 74.9831C0.316194 74.7725 0.474291 74.4047 0.474291 73.8819V59.9298C0.474291 59.6055 0.337431 59.2595 0.0613511 58.8916H2.53899C2.26291 59.2595 2.12605 59.6055 2.12605 59.9298V61.7086C2.4564 61.6094 2.81507 61.561 3.1997 61.561C3.58432 61.561 3.92175 61.6094 4.2521 61.7086V59.9298C4.2521 59.6201 4.10816 59.274 3.81793 58.8916H6.3168C6.02892 59.2716 5.88263 59.6176 5.88263 59.9298V73.8819C5.88263 74.3756 6.04072 74.7435 6.35692 74.9831H3.75657C4.08693 74.758 4.2521 74.3901 4.2521 73.8819V63.2963C3.89343 63.1559 3.53005 63.0857 3.15722 63.0857C2.7844 63.0857 2.4564 63.1486 2.12605 63.2769V73.8843C2.12605 74.4071 2.29123 74.7725 2.62158 74.9855H0V74.9831Z" fill="#484848"/>
<path d="M9.17396 68.9908C9.5869 68.623 9.96209 68.3446 10.2995 68.1535C10.6369 67.9623 10.9626 67.805 11.2811 67.6767C11.1844 66.7449 11.0499 65.7987 10.8776 64.8403C10.7054 63.8795 10.5024 62.955 10.2688 62.0668C10.1178 62.6162 9.98568 63.1849 9.87714 63.7706C9.76859 64.3563 9.66477 64.9492 9.56802 65.5494C9.47128 66.1496 9.39341 66.7425 9.3297 67.3282C9.26835 67.9139 9.21643 68.4681 9.17396 68.9908ZM9.03002 58.8916H11.5478C11.3543 59.2014 11.2599 59.4628 11.2599 59.6757C11.2599 59.8306 11.3212 60.0363 11.4463 60.2904C11.5714 60.5446 11.6728 60.8205 11.7554 61.1157C11.9749 61.878 12.1707 62.7251 12.343 63.6568C12.5152 64.5886 12.6639 65.5155 12.7866 66.44C12.9093 67.3645 13.0037 68.243 13.065 69.0755C13.1264 69.9081 13.1571 70.622 13.1571 71.2149V74.9831H11.4841V71.2149C11.4841 70.9463 11.477 70.6583 11.4628 70.3461C11.4487 70.0363 11.4416 69.7048 11.4416 69.3514C11.2906 69.3926 11.1042 69.4749 10.8847 69.5959C10.6653 69.7169 10.4411 69.8524 10.2146 70.0097C9.98804 70.1646 9.77331 70.3267 9.5751 70.4962C9.37453 70.6656 9.21407 70.835 9.08901 71.0044V74.9855H7.41602V71.2173C7.41602 70.6244 7.44669 69.9105 7.50804 69.078C7.56939 68.2454 7.66378 67.3669 7.78648 66.4424C7.90918 65.5179 8.05784 64.5934 8.2301 63.6689C8.40235 62.7445 8.5982 61.895 8.81765 61.1181C8.90024 60.8083 8.99935 60.5252 9.11733 60.2711C9.23531 60.017 9.29194 59.8113 9.29194 59.6564C9.29194 59.4434 9.20228 59.1917 9.02294 58.894L9.03002 58.8916Z" fill="#484848"/>
<path d="M16.0158 68.9908C16.4287 68.623 16.8039 68.3446 17.1413 68.1535C17.4787 67.9623 17.8044 67.805 18.1229 67.6767C18.0262 66.7449 17.8917 65.7987 17.7194 64.8403C17.5472 63.8795 17.3442 62.955 17.1106 62.0668C16.9596 62.6162 16.8275 63.1849 16.7189 63.7706C16.608 64.3563 16.5066 64.9492 16.4098 65.5494C16.3131 66.1496 16.2352 66.7425 16.1715 67.3282C16.1101 67.9139 16.0582 68.4681 16.0158 68.9908ZM15.8718 58.8916H18.3896C18.1961 59.2014 18.1017 59.4628 18.1017 59.6757C18.1017 59.8306 18.163 60.0363 18.2881 60.2904C18.4132 60.5446 18.5146 60.8205 18.5972 61.1157C18.8167 61.878 19.0125 62.7251 19.1848 63.6568C19.357 64.5886 19.5057 65.5155 19.6284 66.44C19.7511 67.3645 19.8455 68.243 19.9068 69.0755C19.9682 69.9081 19.9989 70.622 19.9989 71.2149V74.9831H18.3259V71.2149C18.3259 70.9463 18.3188 70.6583 18.3046 70.3461C18.2905 70.0363 18.2834 69.7048 18.2834 69.3514C18.1324 69.3926 17.946 69.4749 17.7265 69.5959C17.5071 69.7169 17.2829 69.8524 17.0564 70.0097C16.8298 70.1646 16.6151 70.3267 16.4169 70.4962C16.2163 70.6656 16.0559 70.835 15.9308 71.0044V74.9855H14.2578V71.2173C14.2578 70.6244 14.2885 69.9105 14.3498 69.078C14.4112 68.2454 14.5056 67.3669 14.6283 66.4424C14.751 65.5179 14.8996 64.5934 15.0719 63.6689C15.2441 62.7445 15.44 61.895 15.6594 61.1181C15.742 60.8083 15.8411 60.5252 15.9591 60.2711C16.0771 60.017 16.1337 59.8113 16.1337 59.6564C16.1337 59.4434 16.0441 59.1917 15.8647 58.894L15.8718 58.8916Z" fill="#484848"/>
<path d="M23.146 67.5508C23.2687 67.3814 23.3961 67.0596 23.5283 66.5876C23.658 66.1157 23.7784 65.5615 23.8893 64.925C24.0002 64.2909 24.0899 63.6157 24.1583 62.9018C24.2267 62.1878 24.2621 61.5078 24.2621 60.8592C24.2621 60.7454 24.1654 60.6728 23.9742 60.6365C23.7807 60.6002 23.4929 60.5833 23.1082 60.5833L23.1483 67.5484L23.146 67.5508ZM23.7642 69.9444C23.6274 70.1549 23.4952 70.4598 23.3725 70.8543C23.2498 71.2488 23.1861 71.7014 23.1861 72.2096V73.8819C23.1861 74.4047 23.3442 74.7701 23.6604 74.9831H21.0388C21.3692 74.7725 21.5343 74.4047 21.5343 73.8819L21.4518 60.1186C21.4116 59.5257 21.2653 59.1167 21.0176 58.8916H23.0209C23.3088 58.8916 23.6226 58.9061 23.9601 58.9327C24.2975 58.9618 24.6137 59.032 24.9087 59.1433C25.2036 59.257 25.449 59.4337 25.6425 59.6733C25.836 59.9129 25.9304 60.2445 25.9304 60.668C25.9304 61.3166 25.8785 62.0571 25.7746 62.8921C25.6708 63.7246 25.5505 64.5426 25.4136 65.3485C25.6614 65.9826 25.8549 66.6118 25.9917 67.2338C26.1286 67.8558 26.2301 68.4753 26.2914 69.0973C26.3528 69.7193 26.3905 70.3437 26.4047 70.9705C26.4188 71.5997 26.4259 72.2314 26.4259 72.8655V73.9134C26.4259 74.0465 26.4401 74.1893 26.4684 74.3369C26.4967 74.4845 26.5368 74.6201 26.5911 74.7387C26.6454 74.8597 26.735 74.9395 26.8601 74.9831H25.147C25.0243 74.9831 24.937 74.896 24.8898 74.7193C24.8426 74.5426 24.8072 74.3393 24.786 74.1046C24.7647 73.8722 24.7576 73.6351 24.7647 73.3955C24.7718 73.1559 24.7742 72.972 24.7742 72.8461C24.7742 72.1273 24.7647 71.4061 24.7435 70.6873C24.7222 69.9686 24.6585 69.2474 24.5476 68.5286C24.4367 68.8117 24.3164 69.0683 24.1866 69.3006C24.0568 69.5329 23.9152 69.7483 23.7642 69.9468V69.9444Z" fill="#484848"/>
<path d="M30.2763 60.4385H29.7501C29.5306 60.4675 29.3655 60.5619 29.2569 60.7241C29.1484 60.8862 29.0705 61.104 29.0257 61.3799C28.9808 61.6558 28.9596 61.9898 28.9596 62.3867V63.7202C28.9596 63.7057 28.9667 63.8339 28.9808 64.1002C28.995 64.3688 29.0186 64.7221 29.0469 65.1578C29.0752 65.5958 29.1083 66.0992 29.146 66.6728C29.1814 67.2439 29.2239 67.8272 29.2664 68.4201C29.3112 69.013 29.3608 69.5987 29.4197 70.1771C29.4787 70.7555 29.5377 71.2686 29.5944 71.7115C29.6534 72.1568 29.7147 72.515 29.7808 72.7909C29.8468 73.0668 29.9153 73.2047 29.9884 73.2047C30.0333 73.2047 30.0828 73.0716 30.1418 72.803C30.2008 72.5343 30.2621 72.1858 30.3282 71.755C30.3943 71.3243 30.4556 70.8378 30.5146 70.2933C30.5736 69.7488 30.6279 69.2018 30.6798 68.6524C30.7317 68.1031 30.7789 67.5682 30.8214 67.0527C30.8662 66.5372 30.9016 66.0968 30.9299 65.7289C30.9748 65.0803 31.0078 64.6181 31.029 64.3422C31.0503 64.0663 31.0644 63.8654 31.0739 63.7396C31.0809 63.6113 31.0809 63.5024 31.0739 63.4104C31.0668 63.3185 31.0621 63.1248 31.0621 62.8272C31.0621 62.5585 31.0503 62.2875 31.029 62.0116C31.0078 61.7357 30.97 61.4864 30.9205 61.2589C30.8686 61.0338 30.7931 60.8451 30.6892 60.6974C30.5854 60.5498 30.4486 60.4603 30.2716 60.4337M31.1093 58.8291C32.1475 58.8436 32.7044 59.4704 32.7775 60.7144C32.8059 61.2226 32.8294 61.7091 32.8436 62.1761C32.8578 62.6408 32.8648 63.0789 32.8648 63.4879C32.8648 64.3059 32.8389 65.1529 32.787 66.029C32.7351 66.9051 32.6548 67.7642 32.5463 68.6113C32.4354 69.4583 32.3056 70.2618 32.1522 71.0242C31.9988 71.7865 31.8148 72.4569 31.6024 73.0353C31.3901 73.6137 31.1517 74.0735 30.8898 74.4124C30.6255 74.7512 30.34 74.9206 30.0333 74.9206C29.7265 74.9206 29.4221 74.7488 29.1673 74.4027C28.9101 74.0566 28.6812 73.5798 28.4759 72.9724C28.2706 72.3649 28.0913 71.6534 27.9379 70.833C27.7845 70.015 27.6571 69.1365 27.5533 68.1974C27.4518 67.2584 27.3739 66.2807 27.322 65.2642C27.2701 64.2478 27.2441 63.2386 27.2441 62.2367C27.2441 61.8277 27.263 61.4186 27.2984 61.0096C27.3362 60.6006 27.4164 60.2328 27.5391 59.9085C27.6642 59.5842 27.8435 59.3228 28.0771 59.1244C28.3107 58.9259 28.634 58.8291 29.0422 58.8291C29.4079 58.8702 29.6793 58.892 29.8539 58.892C29.9271 58.892 30.0474 58.8823 30.2149 58.8606C30.3825 58.8388 30.6798 58.8291 31.1045 58.8291H31.1093Z" fill="#484848"/>
<path d="M39.8785 74.9782C40.223 74.7531 40.3953 74.3852 40.3953 73.877V69.7265C40.3953 68.9496 40.3433 68.1146 40.2395 67.2168C40.1357 66.3213 39.9776 65.4549 39.7652 64.6224C39.5529 63.7899 39.2839 63.0372 38.9606 62.3668C38.6373 61.6965 38.2621 61.1906 37.835 60.8518V73.8722C37.835 74.3949 38.0002 74.7603 38.3306 74.9733H35.709C36.0252 74.7628 36.1833 74.3949 36.1833 73.8722V59.9201C36.1833 59.5958 36.0464 59.2497 35.7703 58.8818H36.162C36.6434 58.8818 37.0776 58.906 37.4622 58.9569C37.8468 59.0053 38.2055 59.1238 38.5359 59.3054C38.8662 59.4893 39.18 59.7603 39.475 60.1209C39.77 60.4815 40.0767 60.9632 40.3929 61.5706V59.9201C40.3929 59.6103 40.249 59.2642 39.9587 58.8818H42.4364C42.1603 59.2908 42.0234 59.6369 42.0234 59.9201V73.8722C42.0234 74.3949 42.1886 74.7603 42.519 74.9733H39.8761L39.8785 74.9782Z" fill="#484848"/>
<path d="M45.3677 68.9859C45.7807 68.6181 46.1559 68.3398 46.4933 68.1486C46.8307 67.9574 47.1563 67.8001 47.4749 67.6718C47.3782 66.7401 47.2437 65.7938 47.0714 64.8354C46.8991 63.8746 46.6962 62.9501 46.4626 62.0619C46.3116 62.6113 46.1794 63.18 46.0709 63.7657C45.96 64.3514 45.8585 64.9443 45.7618 65.5445C45.665 66.1447 45.5872 66.7376 45.5235 67.3233C45.4621 67.909 45.4102 68.4632 45.3677 68.9859ZM45.2214 58.8867H47.7392C47.5457 59.1965 47.4513 59.4579 47.4513 59.6708C47.4513 59.8257 47.5127 60.0314 47.6377 60.2856C47.7604 60.5397 47.8642 60.8156 47.9468 61.1108C48.1663 61.8732 48.3621 62.7202 48.5344 63.652C48.7066 64.5837 48.8553 65.5106 48.978 66.4351C49.1007 67.3596 49.1951 68.2381 49.2564 69.0706C49.3178 69.9032 49.3485 70.6171 49.3485 71.21V74.9782H47.6755V71.21C47.6755 70.9414 47.6684 70.6534 47.6542 70.3412C47.6401 70.0314 47.633 69.6999 47.633 69.3465C47.482 69.3877 47.2956 69.47 47.0761 69.591C46.8567 69.712 46.6325 69.8475 46.406 70.0048C46.1794 70.1597 45.9647 70.3219 45.7665 70.4913C45.5659 70.6607 45.4055 70.8301 45.2804 70.9995V74.9806H43.6074V71.2125C43.6074 70.6195 43.6381 69.9056 43.6994 69.0731C43.7608 68.2405 43.8552 67.362 43.9779 66.4375C44.1006 65.513 44.2492 64.5886 44.4215 63.6641C44.5938 62.7396 44.7896 61.8901 45.0091 61.1132C45.0916 60.8035 45.1908 60.5203 45.3087 60.2662C45.4267 60.0121 45.4833 59.8064 45.4833 59.6515C45.4833 59.4385 45.3937 59.1868 45.2143 58.8891L45.2214 58.8867Z" fill="#484848"/>
<path d="M51.0145 74.9787C51.3449 74.7681 51.5101 74.4003 51.5101 73.8775V60.6224H50.6228C50.4152 60.6224 50.2335 60.7701 50.0754 61.0677C49.9173 61.363 49.7828 61.6607 49.6719 61.9559L49.3203 61.8083C49.5256 61.1597 49.6294 60.453 49.6294 59.6907C49.6294 59.5648 49.6271 59.4341 49.62 59.2986C49.6129 59.1655 49.6035 59.0276 49.5893 58.8848H55.059C55.0448 59.0251 55.0354 59.1607 55.0283 59.2865C55.0212 59.4124 55.0189 59.5406 55.0189 59.6665C55.0189 60.4579 55.1298 61.1694 55.3492 61.8059L54.9575 61.9535C54.8466 61.6582 54.7121 61.3606 54.554 61.0653C54.3959 60.7701 54.2142 60.62 54.0066 60.62H53.1595V73.8751C53.1595 74.3978 53.3247 74.7633 53.655 74.9762H51.0122L51.0145 74.9787Z" fill="#484848"/>
<path d="M58.4257 58.8867C58.4163 59.9032 58.362 60.9342 58.2629 61.9772C58.1638 63.0227 58.0576 64.0416 57.9443 65.0363C57.8311 66.031 57.7343 66.9796 57.6588 67.8848C57.581 68.7875 57.5597 69.6079 57.5928 70.3412C57.6093 70.6946 57.6447 71.0479 57.7013 71.3988C57.7579 71.7522 57.8617 72.0716 57.9727 72.362C58.0836 72.6524 58.244 72.8848 58.4587 73.0615C58.6711 73.2381 58.9448 73.3252 59.2752 73.3252C59.3979 73.3107 59.6268 73.2115 59.9571 73.03V59.925C59.9571 59.6007 59.8061 59.2546 59.5041 58.8867H62.0218C61.7198 59.2546 61.5688 59.6007 61.5688 59.925V73.877C61.5688 74.3853 61.7339 74.7531 62.0643 74.9782H61.3422C61.1912 74.9782 61.0591 74.9564 60.9505 74.9153C60.8396 74.8741 60.7311 74.7749 60.6202 74.62C60.3441 74.7749 60.0845 74.8766 59.8368 74.9274C59.589 74.9758 59.3413 75.0024 59.0935 75.0024C58.6404 75.0024 58.2275 74.8887 57.8547 74.6636C57.4842 74.4385 57.1633 74.1263 56.8943 73.7318C56.6253 73.3373 56.4153 72.863 56.2643 72.3136C56.1132 71.7643 55.9764 71.1568 55.9433 70.4937C55.9056 69.7749 55.9103 68.9738 55.9551 68.0905C56 67.2071 56.0613 66.302 56.1439 65.3703C56.2265 64.4385 56.3162 63.514 56.4129 62.5968C56.5097 61.6796 56.5923 60.8252 56.6418 60.0339C56.6442 59.9782 56.6158 59.8862 56.5757 59.758C56.5356 59.6321 56.4837 59.5039 56.42 59.378C56.3586 59.2522 56.2855 59.1408 56.2029 59.0489C56.1203 58.9569 56.0377 58.9037 55.9504 58.8891H58.4328L58.4257 58.8867Z" fill="#484848"/>
<path d="M65.4307 67.546C65.5558 67.3766 65.6809 67.0547 65.813 66.5827C65.9428 66.1108 66.0631 65.5566 66.174 64.9201C66.2849 64.286 66.3746 63.6108 66.443 62.8969C66.5115 62.1829 66.5469 61.5029 66.5469 60.8543C66.5469 60.7405 66.4501 60.6679 66.259 60.6316C66.0655 60.5953 65.7776 60.5784 65.393 60.5784L65.4331 67.5435L65.4307 67.546ZM66.0513 69.9395C65.9145 70.15 65.7823 70.455 65.6596 70.8494C65.5369 71.2439 65.4732 71.6965 65.4732 72.2047V73.877C65.4732 74.3998 65.6313 74.7652 65.9475 74.9782H63.3259C63.6563 74.7676 63.8215 74.3998 63.8215 73.877L63.7389 60.1137C63.6987 59.5208 63.5525 59.1118 63.3047 58.8867H65.308C65.5959 58.8867 65.9097 58.9012 66.2472 58.9279C66.5846 58.9569 66.9008 59.0271 67.1958 59.1384C67.4907 59.2522 67.7361 59.4288 67.9296 59.6684C68.1231 59.908 68.2175 60.2396 68.2175 60.6631C68.2175 61.3117 68.1656 62.0523 68.0618 62.8872C67.9579 63.7197 67.8376 64.5377 67.7007 65.3436C67.9485 65.9777 68.142 66.607 68.2788 67.2289C68.4157 67.8509 68.5172 68.4705 68.5785 69.0924C68.6399 69.7144 68.6776 70.3388 68.6918 70.9656C68.7059 71.5949 68.713 72.2265 68.713 72.8606V73.9085C68.713 74.0416 68.7272 74.1844 68.7555 74.332C68.7838 74.4797 68.8239 74.6152 68.8782 74.7338C68.9325 74.8548 69.0221 74.9346 69.1472 74.9782H67.4341C67.309 74.9782 67.2241 74.8911 67.1769 74.7144C67.1297 74.5377 67.0943 74.3344 67.0731 74.0997C67.0518 73.8674 67.0447 73.6302 67.0518 73.3906C67.0589 73.151 67.0613 72.9671 67.0613 72.8412C67.0613 72.1224 67.0518 71.4012 67.0306 70.6825C67.0094 69.9637 66.9456 69.2425 66.8347 68.5237C66.7238 68.8069 66.6035 69.0634 66.4737 69.2957C66.3439 69.528 66.2023 69.7434 66.0513 69.9419V69.9395Z" fill="#484848"/>
<path d="M72.8036 60.4336H72.2774C72.058 60.4627 71.8928 60.557 71.7843 60.7192C71.6734 60.8813 71.5979 61.0991 71.553 61.375C71.5082 61.6509 71.487 61.9849 71.487 62.3818V63.7153C71.487 63.7008 71.494 63.8291 71.5082 64.0953C71.5224 64.3639 71.546 64.7172 71.5743 65.1529C71.6026 65.5909 71.6356 66.0943 71.6734 66.6679C71.7088 67.239 71.7512 67.8223 71.7937 68.4152C71.8385 69.0081 71.8881 69.5938 71.9471 70.1722C72.0061 70.7506 72.0651 71.2637 72.1217 71.7066C72.1807 72.1519 72.242 72.5101 72.3081 72.786C72.3742 73.0619 72.4426 73.1998 72.5158 73.1998C72.5606 73.1998 72.6102 73.0667 72.6691 72.7981C72.7281 72.5294 72.7895 72.1809 72.8556 71.7502C72.9216 71.3194 72.983 70.8329 73.042 70.2884C73.101 69.7439 73.1552 69.1969 73.2071 68.6475C73.2591 68.0982 73.3063 67.5633 73.3487 67.0478C73.3936 66.5324 73.429 66.0919 73.4596 65.724C73.5045 65.0754 73.5375 64.6132 73.5587 64.3373C73.58 64.0614 73.5941 63.8605 73.6036 63.7347C73.6107 63.6088 73.6107 63.4975 73.6036 63.4055C73.5965 63.3136 73.5918 63.12 73.5918 62.8223C73.5918 62.5536 73.58 62.2826 73.5587 62.0067C73.5375 61.7308 73.4997 61.4815 73.4478 61.254C73.3959 61.029 73.3204 60.8402 73.2166 60.6926C73.1151 60.5449 72.9759 60.4554 72.7989 60.4288M73.6366 58.8242C74.6749 58.8387 75.2317 59.4656 75.3049 60.7095C75.3332 61.2177 75.3568 61.7042 75.371 62.1713C75.3851 62.6359 75.3922 63.074 75.3922 63.483C75.3922 64.301 75.3662 65.148 75.3143 66.0241C75.2624 66.9002 75.1822 67.7594 75.0736 68.6064C74.9627 69.4535 74.833 70.2569 74.6796 71.0193C74.5262 71.7816 74.3421 72.452 74.1298 73.0304C73.9174 73.6088 73.6791 74.0687 73.4172 74.4075C73.1529 74.7463 72.8674 74.9157 72.5606 74.9157C72.2538 74.9157 71.9494 74.7439 71.6946 74.3978C71.4374 74.0517 71.2085 73.5749 71.0032 72.9675C70.7979 72.36 70.6186 71.6485 70.4652 70.8281C70.3118 70.0101 70.1844 69.1316 70.0806 68.1926C69.9791 67.2535 69.9013 66.2758 69.8494 65.2594C69.7974 64.2429 69.7715 63.2337 69.7715 62.2318C69.7715 61.8228 69.7904 61.4138 69.8258 61.0048C69.8612 60.5958 69.9437 60.2279 70.0664 59.9036C70.1915 59.5793 70.3708 59.3179 70.6044 59.1195C70.838 58.921 71.1613 58.8242 71.5695 58.8242C71.9353 58.8654 72.2066 58.8871 72.3813 58.8871C72.4544 58.8871 72.5748 58.8775 72.7423 58.8557C72.9098 58.8339 73.2071 58.8242 73.6319 58.8242H73.6366Z" fill="#484848"/>
<path fill-rule="evenodd" clip-rule="evenodd" d="M27.7018 21.6453C27.7891 21.5267 27.9283 21.4227 27.9472 21.3017C28.1005 20.2538 28.6409 19.4309 29.3653 18.7266C29.4833 18.6129 30.3328 17.8772 30.4248 17.7949C30.6395 17.6037 29.7877 18.0417 29.4031 18.3878C29.2167 18.5572 29.2615 18.2838 29.4361 18.078C29.4809 18.0248 29.5588 17.853 29.5329 17.7731C29.3795 17.882 29.2544 17.9788 29.1246 18.0635C28.9878 18.1531 28.8769 18.1628 28.7943 17.974C28.7282 17.8264 28.648 17.7465 28.556 17.7174C28.7943 17.5117 29.0208 17.2988 29.1341 17.2431C29.4125 17.1052 29.6792 16.8825 29.8726 16.6308C30.2408 16.154 30.6136 15.7208 31.1893 15.4885C31.515 15.3578 32.4282 14.7818 32.7019 14.2276C32.7821 14.2421 32.8623 14.2567 32.8789 14.2276C33.0605 13.9396 33.2965 14.0485 33.5537 14.034C34.0752 14.0001 34.5896 13.8452 35.104 13.7242C35.2786 13.6831 35.4532 13.6177 35.6137 13.533C35.6892 13.4943 35.7199 13.3709 35.7907 13.3104C35.8851 13.2329 36.1965 13.2112 36.2909 13.2233C37.8105 13.3201 38.3013 13.3515 39.0258 13.4774C39.1225 13.7387 38.6978 14.1018 38.9786 14.3777C38.8016 14.6318 38.6529 15.0408 38.4382 15.111C37.7775 15.3264 37.6949 15.9144 37.4118 16.3767C37.3646 16.4517 37.3646 16.5582 37.3079 16.6235C36.6732 17.3714 36.0266 18.1071 35.2574 18.8573C34.8775 19.3922 34.9247 19.8157 35.3659 20.3433C35.4249 20.4135 35.4367 20.5272 35.465 20.6216C35.5335 20.8491 35.5689 21.0645 35.8992 21.0887C36.2225 21.1105 36.2107 21.3888 36.0101 21.5413C35.7694 21.7228 35.8402 21.851 35.9252 22.0737C36.0384 22.3617 36.1116 22.6787 36.1352 22.9909C36.1635 23.412 36.2815 23.7291 36.8785 23.821C36.4089 24.0776 36.4042 24.414 36.4207 24.7697C36.4419 25.1739 36.3664 25.5466 36.2437 25.9508C36.0384 26.6114 36.3098 27.2576 36.7959 27.7586C37.0012 27.9716 37.2725 28.1991 37.1215 28.4895C36.9658 28.7871 36.6685 29.0074 36.4254 29.2542C36.3995 29.2809 36.3334 29.2567 36.2886 29.2712C35.6939 29.4527 35.6397 29.4091 35.6632 28.6758C35.0993 28.9808 34.6958 29.3486 34.5471 29.9633C34.4976 30.1715 34.448 30.382 34.4032 30.5926C34.238 31.3573 34.4527 31.7179 35.1937 31.9333C35.2385 31.9454 35.2881 31.9672 35.3329 31.9575C35.9488 31.8268 36.2248 32.2867 36.4608 32.7102C36.6755 33.0974 36.8006 33.5451 36.9375 33.9735C37.0224 34.2397 36.803 34.3656 36.6213 34.4745C36.357 34.6318 36.298 34.8133 36.3782 35.1327C36.5056 35.6361 36.5505 36.1613 36.6354 36.6768C36.6449 36.7421 36.6685 36.8172 36.7109 36.8631C37.0861 37.2891 37.4566 37.7199 37.853 38.124C38.1668 38.4459 38.2636 38.4144 38.6223 38.049C38.7332 37.9377 38.8865 37.8651 39.0258 37.7876C40.5831 36.9212 40.4274 35.4086 39.6393 34.2954C39.5826 34.2179 39.4529 34.1986 39.3703 34.1356C39.2075 34.0146 39.0116 33.9106 38.9125 33.746C38.8606 33.6589 38.9809 33.4604 39.021 33.3128C39.1225 33.3781 39.2216 33.4435 39.3231 33.5064C39.4009 33.5548 39.5024 33.654 39.5543 33.6323C39.9012 33.4822 40.0097 33.124 39.8328 32.778C39.7903 32.6932 39.7077 32.6037 39.7124 32.5238C39.762 31.7954 39.2381 31.8438 38.7615 31.73C38.9974 32.0156 39.1957 32.2552 39.4009 32.5045C39.3608 32.5626 39.3066 32.6376 39.2594 32.7175C39.1083 32.9691 38.9786 33.2378 38.6057 33.0998C38.2659 32.974 37.8247 32.5142 37.9474 32.2649C38.3226 31.4953 37.7397 31.1129 37.3976 30.6458C37.2183 30.399 36.9422 30.2296 36.7039 30.019C36.987 29.8544 37.3693 29.7649 37.5156 29.5229C37.8955 28.9009 38.1881 28.2184 38.4736 27.5408C38.5232 27.4222 38.3981 27.1778 38.2895 27.0495C38.1031 26.8317 38.0371 26.6574 38.2659 26.4324C38.3934 26.3065 38.4099 26.1903 38.3013 25.9943C38.2164 25.8418 38.3131 25.5901 38.3061 25.382C38.2943 24.9682 38.4571 24.4938 37.9427 24.2325C37.8884 24.2058 37.8695 23.9396 37.9285 23.8767C38.0866 23.7121 38.0725 23.5645 38.0371 23.3564C37.8978 22.5166 37.341 21.8704 37.0885 21.0863C36.6142 20.8781 36.7251 20.3602 36.534 20.0045C36.4396 19.7891 36.265 19.6173 36.1305 19.4333C36.2791 19.3728 36.6496 19.2276 36.6472 19.2179C36.508 18.6734 36.9587 18.8622 37.164 18.7339C37.3882 18.5935 37.6926 18.4701 37.5958 18.0732C37.5227 17.7755 37.6619 17.5287 38.0512 17.5093C37.8506 17.1947 37.6737 16.9164 37.4778 16.6114C37.7657 16.4082 37.945 16.5437 38.1244 16.6598C38.3249 16.7905 38.5137 16.9019 38.6836 16.5485C38.7166 16.4783 38.8417 16.4445 38.9243 16.3961C39.3632 16.1468 39.3915 15.9992 39.0376 15.7015C38.9219 15.6023 38.8039 15.5054 38.7072 15.3869C38.6789 15.353 38.7261 15.2562 38.752 15.1158C38.9078 15.1836 39.0305 15.2513 39.1626 15.2925C39.4293 15.3723 39.6888 15.428 39.8705 15.0505C39.9271 14.9295 40.0805 14.8472 40.1938 14.7552C40.4227 14.5664 40.5619 14.397 40.2197 14.23C40.1773 14.2107 40.1985 14.0824 40.1914 14.005C40.2646 13.9832 40.3354 13.959 40.4085 13.942C40.4298 13.9372 40.4557 13.9517 40.4769 13.9614C40.8922 14.0751 41.4161 14.1962 41.888 14.4261C42.393 14.6729 42.8295 15.094 43.1906 15.3239C43.5775 15.5708 43.8961 15.9072 44.302 16.4178C44.6063 16.7107 44.8423 17.0592 45.0358 17.3956C45.2812 17.7901 45.3213 18.2136 45.1184 18.3588C44.5662 18.7508 43.8749 19.005 43.3935 19.443C42.9263 19.9609 42.57 20.5853 42.216 21.1903C42.032 21.3404 42.1948 21.5098 42.3364 21.6356C42.8342 22.1995 42.9617 22.3399 43.5044 21.1928C43.9315 20.5538 44.5733 20.0819 45.2529 19.6729C45.6918 19.3801 45.857 19.4551 46.0292 19.6729C46.4964 20.336 46.4634 21.4299 45.9301 22.018C45.7059 22.2721 45.2576 22.2237 45.1208 22.6158C44.486 22.778 44.3208 23.5282 43.7404 23.7726C43.6908 23.7847 43.7002 24.0824 43.7734 24.1937C43.9386 24.4478 44.1651 24.6657 44.3633 24.9004C44.696 25.2925 45.2576 25.3433 45.6352 24.8181C45.9514 24.5495 46.159 24.1719 46.3855 23.8259C46.4398 23.7412 46.4256 23.5524 46.3525 23.4871C46.0221 23.187 46.2888 22.9474 46.4587 22.6206C47.025 23.245 47.294 23.2644 47.5819 23.6008C47.8084 23.867 47.7754 23.6008 48.0066 23.7726C48.606 24.2179 48.2331 24.0316 48.6272 24.4067C48.8065 24.5761 49.1746 24.7237 49.4082 24.944C50.0218 25.5248 50.5008 25.9846 50.194 26.4227C50.0642 26.6066 49.7292 26.8147 49.5192 26.9575C49.0378 27.2794 48.7405 27.548 48.2284 27.5166C48.0656 27.5069 47.8792 27.3738 47.8627 27.2504C47.8556 27.1874 47.8485 27.0398 47.7706 27.0447C47.6291 27.0519 47.4379 27.2383 47.6479 27.5408C47.7636 27.7102 47.9523 28.141 48.101 28.262C47.9641 28.8694 47.8863 28.9832 47.8957 29.6439C47.9004 29.9246 47.1784 30.3723 47.0651 31.1807C46.9518 31.989 47.9287 31.4614 48.3275 32.6957C48.6414 33.6686 49.4578 35.1497 49.2855 35.8491C49.2148 36.1419 48.6248 37.5069 47.4757 37.0205C47.4261 36.9987 47.327 37.018 47.294 37.0592C46.9872 37.4391 46.6357 37.1173 46.3077 37.1076C46.1873 37.1052 46.0481 36.9866 45.9514 37.0229C45.4983 37.1995 45.0287 37.0471 44.578 37.1124C44.0801 37.185 43.5917 37.3375 43.0985 37.4561C43.1103 37.9401 42.5464 37.8481 42.4378 38.3902C42.308 38.746 42.1499 39.0872 42.0107 39.4382C41.8998 39.7189 41.8904 39.8786 42.0225 40.1763C42.1075 40.3699 41.8385 40.641 41.9093 40.7934C41.98 40.9459 41.947 41.0451 41.8809 41.1347C41.6827 41.1782 41.5058 41.2291 41.4633 41.338C41.3028 41.7421 41.3453 42.2334 41.3052 42.6884C41.284 42.8578 41.2344 43.0321 41.2509 43.1991C41.258 43.262 41.2792 43.3467 41.3052 43.4241C41.2745 43.4846 41.2651 43.5863 41.2486 43.7387C41.225 43.9638 41.3123 44.3123 41.2014 44.3946C40.9678 44.5664 40.7861 44.6753 40.9465 44.9924C40.3967 45.3336 40.6988 46.0161 40.392 46.4541C40.5407 47.2044 40.1773 47.7804 39.8752 48.4265C39.408 49.4285 39.1791 50.5345 39.1768 51.6647C39.1768 51.8559 39.2004 52.0325 38.9951 52.0446C38.8724 52.0519 38.6907 51.9454 38.6246 51.8341C38.4925 51.6139 38.4547 51.3331 38.3202 51.1129C37.9733 50.5442 37.879 49.8641 37.5982 49.2954C37.2442 48.5839 36.9398 47.8627 36.6378 47.1294C36.3593 46.4517 35.9346 45.8394 35.5759 45.1981C35.5523 45.1569 35.5169 45.1158 35.5075 45.0722C35.399 44.5083 35.0356 44.1284 34.6274 43.7775C34.5448 43.7049 34.4716 43.5887 34.4457 43.4822C34.3277 42.9643 33.936 42.6981 33.5773 42.3738C33.2234 42.0519 32.6028 41.9841 32.5721 41.3283C32.5721 41.2944 32.4706 41.2581 32.414 41.2339C31.8359 40.9919 31.6731 40.4377 31.9798 39.8859C32.2984 39.3123 32.7326 38.8331 33.1549 38.3515C33.9596 37.4319 34.2828 36.3694 34.113 35.1787C33.9832 34.2615 33.6835 33.383 33.0417 32.6811C33.1243 32.974 33.1526 33.2983 33.2965 33.5524C33.6741 34.2131 33.8699 34.8859 33.8133 35.6676C33.5372 35.9725 33.5136 36.5146 33.1455 36.747L32.6854 37.0132L32.2984 36.4856L32.2701 36.6623L32.4989 37.1584L32.3739 37.4367C32.3385 37.5166 32.1356 36.9091 32.0317 36.7131C31.9798 36.6187 32.0223 36.8583 31.9822 36.8704C32.0294 37.1415 32.0813 37.4125 32.1238 37.6836C32.1308 37.7223 32.0978 37.7683 32.0506 37.9159C31.8548 37.5843 31.6943 37.0737 31.2342 36.4735C31.4135 37.0205 31.5598 37.4391 31.666 37.7295C31.6589 37.8748 31.4867 37.9595 31.3168 38.0732C31.1705 37.836 30.9109 37.2141 30.7929 37.0205C30.7528 37.0447 30.7127 37.0713 30.6702 37.0955C30.7386 37.26 30.9652 37.8457 31.0124 38.0151C31.0784 38.2499 31.1115 38.4943 31.161 38.7339C31.0194 38.7291 30.9463 38.6782 30.9085 38.6056C30.9038 38.5814 30.8967 38.5548 30.8873 38.5209C30.8779 38.4871 30.8684 38.4532 30.859 38.4169C30.8448 38.3225 30.8354 38.2233 30.7882 38.1531C30.7811 38.1434 30.774 38.1337 30.7622 38.124C30.5499 37.5142 30.203 36.7228 30.0166 36.3477C29.7735 35.8636 29.3488 35.4425 28.9949 35.1473C28.8698 35.0093 28.7329 34.8786 28.6008 34.7479C28.5158 34.6657 28.3955 34.6076 28.3436 34.5083C28.294 34.4188 28.2704 34.2639 28.3153 34.1889C28.353 34.126 28.5206 34.0969 28.6079 34.126C28.7943 34.1865 29.311 34.2954 29.4408 34.4551C29.8939 34.3873 28.9005 34.0292 28.8438 33.9227C28.766 33.7775 28.7896 33.7049 28.7565 33.5355C28.8816 33.5234 28.8957 33.412 29.0137 33.4362C29.3158 33.4411 29.8113 33.5403 30.1063 33.7097C30.4814 33.9251 30.6254 33.8888 30.1865 33.6105C29.6532 33.2717 29.4503 33.2789 29.0586 33.2184C28.9382 33.1991 29.0491 33.0538 28.9547 32.9667C29.0633 32.8965 29.2072 32.7441 29.2757 32.7731C29.488 32.8602 30.5003 33.0538 30.2974 32.9595C30.1487 32.8893 29.9293 32.6908 29.6603 32.5601C29.5376 32.4996 29.7334 32.4004 29.8538 32.444C30.5829 32.7102 30.9628 32.7997 30.1063 32.2818C30.0709 32.26 30.0142 31.9817 30.2809 32.1197C30.5145 32.2407 31.5291 32.427 30.3375 31.9212C30.2431 31.8801 30.0425 31.6526 30.2408 31.5703C30.4295 31.4929 31.0171 31.7518 30.9911 31.6889C30.8566 31.3815 29.7924 31.3501 29.5045 31.3331C29.3559 31.3259 29.16 31.4832 29.1128 31.217C29.0704 30.975 29.2733 30.9653 29.4338 30.9362C29.5659 30.912 29.7146 30.8346 29.8278 30.8709C30.5192 31.0839 31.2011 31.3259 31.8878 31.5558C31.6212 31.2097 31.3852 30.9096 31.6778 30.399C31.8099 30.1666 31.6613 29.7455 31.5976 29.4188C31.5244 29.0485 31.1988 29.0122 30.9062 28.9033C30.5334 28.7629 30.177 28.5476 30.0213 28.1289C29.7452 27.3859 29.1294 27.306 28.4852 27.3012C28.1289 27.2988 28.0628 27.2479 28.0675 26.8656C28.0722 26.1976 28.0675 25.5272 28.0675 24.8472C28.0557 24.8472 27.9566 24.898 27.9141 25.1352C27.8339 25.5926 27.7938 26.4493 27.8174 26.8994C27.8315 27.156 27.6805 27.4512 27.6286 27.2237C27.5814 27.0204 27.6333 26.3113 27.6451 26.1347C27.7183 25.0408 27.6239 24.8472 27.5885 24.9125C27.4729 25.1255 27.4351 25.4038 27.4328 25.6579C27.4233 26.2121 27.4139 26.8172 27.4139 27.3714C27.4139 27.4609 27.3219 27.548 27.2699 27.6376C27.1803 27.5771 27.0222 27.5263 27.0127 27.4537C26.975 27.1681 26.9773 26.8777 26.9773 26.5897C26.9773 25.9725 27.0269 25.2078 27.0883 24.5906C27.1001 24.4745 26.916 24.4503 26.9018 24.5568C26.7721 25.5079 26.8664 27.3932 26.7697 27.4077C26.7485 27.4101 26.6305 27.5892 26.5904 27.2625C26.5455 26.914 26.496 25.1206 26.5715 24.6221C26.6848 23.8815 26.404 24.4575 26.3945 24.5011C26.3662 24.6366 26.3568 24.7867 26.3709 24.9295C26.437 25.6434 26.2671 25.9193 26.404 26.8946C26.4323 27.1076 26.3166 27.1995 26.1114 27.202C25.8966 27.202 25.8895 27.0519 25.9155 26.9091C25.9721 26.58 25.9533 25.7378 25.8542 25.1013C25.8636 25.0432 25.8707 25.0045 25.8754 24.99C26.0453 24.3051 26.201 23.6153 26.3615 22.9256C26.4016 22.7513 26.4275 22.6037 26.6824 22.7029C26.7437 22.7271 26.8971 22.4996 27.0104 22.3932C27.277 22.139 27.4965 22.0011 27.6381 22.3593C27.7537 22.6473 28.0463 22.4827 27.697 23.3878C27.69 23.4096 27.8457 23.8525 27.8504 23.5669C27.8575 23.141 28.2468 22.5892 28.2398 22.5626C28.2303 22.5335 28.1548 22.5335 28.1147 22.5069C28.1053 22.5021 28.1194 22.427 28.1289 22.4246C28.8037 22.3472 28.9665 21.2194 29.4054 20.8249C29.3417 20.7813 28.9264 21.1081 28.6834 21.5776C28.5654 21.8051 28.4875 21.626 28.5937 21.4904C28.7023 21.3477 28.6621 21.1831 28.7235 21.0669C28.8745 20.7886 28.7919 20.7281 28.7612 20.7644C28.4781 21.1081 28.3507 21.7954 27.697 21.6381M26.9939 36.747C26.7768 36.9091 26.6753 37.1148 26.3945 37.5408C26.0948 37.9909 26.3402 37.8869 26.5007 37.6182C26.6234 37.4101 26.8405 36.9261 27.3856 36.7204C27.4398 36.9406 27.1708 37.4053 26.9302 37.5505C26.8546 37.5964 26.5432 37.9377 26.5762 38.4265C26.5455 38.4072 26.8664 37.8312 27.1166 37.669C27.362 37.6763 27.4328 37.9353 27.4092 38.1845C27.3761 38.5355 27.3219 38.8961 27.2133 39.23C26.9821 39.9319 26.8924 40.6144 27.2251 41.3089C27.277 41.4203 27.2605 41.6913 27.2251 41.701C27.152 41.7228 27.1048 41.7542 27.0741 41.793C26.9538 41.609 26.8546 41.2073 26.8428 41.0766C26.7957 40.5175 26.7296 40.8733 26.7414 41.1274C26.7555 41.4106 26.8098 41.6284 26.9561 41.868C26.9773 41.9043 26.9986 41.9357 27.0198 41.9624C27.0175 42.1366 27.1001 42.3375 26.9632 42.4004C26.7933 42.4803 26.3497 41.7083 26.3119 41.488C26.1515 40.578 26.1019 41.05 26.1892 41.3961C26.3638 42.1027 26.7839 42.7562 26.5998 42.7707C26.5432 42.7755 26.4889 42.7755 26.4393 42.7731C26.2813 42.6279 26.0901 42.2455 26.05 42.1221C25.8825 41.5872 25.8943 41.9478 25.9627 42.1947C26.0217 42.4077 26.0948 42.5747 26.2175 42.7344C25.9533 42.6424 25.8164 42.4101 25.6725 42.11C25.6394 42.0398 25.3421 40.9629 25.2713 40.4619C25.2241 40.1327 25.2524 39.9537 25.3044 39.7891C25.3067 39.8811 25.3161 39.973 25.3279 40.0722C25.3681 40.3675 25.5026 40.7571 25.4365 40.1061C25.42 39.9512 25.4365 39.4503 25.5214 39.2155C25.604 38.988 25.6064 38.8622 25.571 38.8452C25.6654 38.4822 25.7291 38.3176 26.0099 37.7078C26.0406 37.64 26.0594 37.5674 26.0925 37.4633C26.2317 37.2963 26.3733 37.11 26.4205 37.0689C26.5219 36.9793 26.5597 36.8172 26.6564 36.7204C26.7957 36.58 26.9278 36.6211 26.9939 36.7446V36.747ZM25.7315 39.5858C25.6371 39.852 25.6276 40.0771 25.6701 40.3554C25.7102 40.6071 25.8447 40.9411 25.7786 40.3844C25.7621 40.2537 25.7786 39.8254 25.8636 39.6245C26.0311 39.2276 25.8707 39.1913 25.7291 39.5858H25.7315ZM26.2765 38.9372C26.1019 39.2615 26.1373 39.472 26.1161 40.0747C26.0972 40.6192 26.2506 40.3965 26.2459 40.0819C26.2411 39.7988 26.2223 39.3728 26.3945 39.0292C26.5668 38.6855 26.562 38.4072 26.2765 38.9372ZM29.3559 38.1918C29.606 38.6371 29.842 39.4406 30.1015 39.7673C30.2431 39.944 29.7499 40.1618 29.304 40.3288C29.4668 40.5321 29.6296 40.7233 29.7783 40.9241C29.9269 41.125 29.8821 41.4275 29.691 41.4953C29.4102 41.5921 29.127 41.6841 28.8391 41.7518C28.3224 41.8777 28.2775 41.9478 28.4403 42.4682C28.4616 42.5359 28.4946 42.6013 28.5064 42.6715C28.5394 42.8385 28.5796 43.0442 28.3507 43.0659C28.2516 43.0756 28.0864 42.9546 28.0439 42.853C27.8811 42.4585 27.7277 42.0543 27.6215 41.6405C27.3997 40.7838 27.336 39.9246 27.7277 39.0921C27.7631 39.0171 27.8103 38.8622 27.7962 38.8573C27.3785 38.6444 27.7301 38.5282 27.8292 38.3418C28.0439 37.9401 28.379 37.7102 28.7707 37.5117C28.7801 37.5868 28.7778 37.6594 28.799 37.7247C28.9264 38.1071 29.0043 38.5209 29.2119 38.8501C29.3063 38.9977 29.6485 39.0437 29.3535 38.1942L29.3559 38.1918ZM29.8962 39.0243C29.7712 38.6153 29.6013 38.2281 29.4361 37.836C29.2096 37.2963 29.1128 36.701 28.7778 36.1855C28.6645 36.0088 28.648 35.6555 29.009 35.5732C29.3276 35.5006 29.639 36.0984 29.8042 36.4057C29.9458 36.6671 30.295 37.5553 30.5546 38.1047C30.6702 38.5645 30.8189 38.8767 30.8897 39.2421C30.9133 39.3631 30.8024 39.3535 30.7339 39.4527C30.7198 39.4745 30.7457 39.7044 30.6183 39.5955C30.5569 39.5422 30.5168 39.0824 30.2903 38.6129C30.2408 38.5088 30.3776 38.988 30.3611 38.9783C30.3304 38.959 30.4649 39.4841 30.4791 39.61C30.498 39.7697 30.3281 39.7697 30.2526 39.6294C30.17 39.4793 29.9765 39.2349 29.8915 39.0243H29.8962ZM39.0494 37.0059C38.7308 36.9914 38.3957 36.9938 38.0654 36.9503C37.9238 36.9309 37.7775 36.8341 37.6619 36.7397C37.5439 36.6429 37.4825 36.4638 37.3575 36.3888C37.0389 36.1976 37.0838 35.9338 37.1546 35.6434C37.2371 35.3046 37.4613 35.0698 37.7775 35.048C38.2471 35.0142 38.7261 35.0674 39.198 35.094C39.2452 35.0964 39.3042 35.1618 39.3325 35.2126C39.5048 35.5103 39.6416 35.8031 39.3632 36.1298C39.2122 36.3065 39.0895 36.5122 38.9904 36.7252C38.955 36.7978 39.0281 36.9261 39.047 37.0108L39.0494 37.0059ZM36.1871 31.5921C36.2815 31.4227 36.3381 31.1952 36.4797 31.1008C36.7369 30.9265 36.8336 31.2145 36.9469 31.3767C37.1026 31.5969 37.2253 31.8462 37.3929 32.0592C37.5581 32.2697 37.6477 32.4658 37.433 32.686C37.2348 32.8917 36.9705 32.9038 36.7487 32.686C36.4632 32.4028 36.2154 32.0858 36.1871 31.5945V31.5921ZM27.8315 45.3723C27.7655 45.3385 27.7254 45.3167 27.6829 45.2949C27.6994 45.2659 27.7183 45.215 27.7348 45.215C28.0463 45.2174 28.1194 44.8907 28.2964 44.7818C28.6409 44.5713 28.6197 44.1308 28.9689 43.9348C29.1813 43.8162 29.2898 43.4943 29.429 43.2523C29.547 43.049 29.6013 42.7925 29.7547 42.6303C30.0496 42.3133 30.4107 42.0592 30.7127 41.7494C30.8944 41.5606 31.0242 41.2775 31.3333 41.4251C31.5763 41.5413 31.791 41.7204 32.0129 41.8825C32.1002 41.9454 32.1568 42.0906 32.2441 42.1076C32.9945 42.2455 33.0417 43.0369 33.4475 43.4895C33.7472 43.8259 33.8581 44.3389 34.1531 44.6826C34.6911 45.3046 35.0261 46.0282 35.3376 46.776C35.5169 47.2092 35.6986 47.64 35.8662 48.078C36.1069 48.7145 36.6213 49.201 36.7227 49.9343C36.7982 50.4812 37.0908 50.9967 37.256 51.534C37.3811 51.9406 37.0413 52.3254 36.6496 52.2092C36.147 52.0592 35.5641 52.1536 35.1536 51.701C35.0828 51.6235 34.9341 51.6308 34.8279 51.5824C33.792 51.1081 32.7231 50.6894 31.7321 50.1327C30.9345 49.6826 30.2195 49.0751 29.4857 48.5113C29.2733 48.3467 29.0232 48.1143 28.9713 47.8723C28.8722 47.4101 28.6244 47.1487 28.261 46.9043C27.7985 46.5921 27.5484 46.1468 27.7702 45.549C27.7914 45.4909 27.815 45.4328 27.8363 45.3772L27.8315 45.3723ZM29.6131 29.4478C29.6508 29.4599 29.6862 29.4745 29.724 29.4866C29.6296 29.7455 29.5423 30.0117 29.4361 30.2659C29.2922 30.6071 29.0137 30.7015 28.6834 30.6386C28.379 30.5805 28.0227 30.2368 28.0416 29.9512C28.0817 29.3801 28.1595 28.8089 28.2681 28.2475C28.3153 27.9933 28.8745 27.7174 29.0633 27.7925C29.5848 28.003 29.8538 28.5693 29.6957 29.1211C29.665 29.2276 29.6414 29.3365 29.6131 29.4454V29.4478ZM27.6617 30.0747C27.6168 30.5974 27.4068 30.9629 27.034 31.1831C26.9113 31.2557 26.6612 31.2242 26.5267 31.1395C26.017 30.8201 25.8235 29.9706 26.1562 29.472C26.2765 29.2905 26.5149 29.1937 26.6848 29.0413C26.9231 28.8283 27.1378 28.8888 27.2676 29.1308C27.4375 29.4503 27.5507 29.8036 27.6617 30.0722V30.0747ZM30.1558 30.1836C30.2526 29.9488 30.2903 29.777 30.3871 29.6487C30.59 29.3801 31.0312 29.414 31.1563 29.6899C31.2719 29.9416 30.984 30.6676 30.7268 30.7499C30.6702 30.7692 30.5687 30.7596 30.5357 30.7208C30.3941 30.5442 30.2714 30.353 30.1534 30.1836H30.1558ZM24.6696 30.9362C24.7192 30.8588 24.7593 30.7184 24.8419 30.687C24.9221 30.6555 25.0943 30.6991 25.1368 30.7692C25.2713 30.9871 25.3964 31.2242 25.453 31.4711C25.4742 31.5679 25.3185 31.7494 25.2029 31.8147C25.1415 31.8486 24.9339 31.747 24.8914 31.655C24.7899 31.4445 24.7475 31.2024 24.6696 30.9362ZM49.1935 29.8472C48.6909 29.1381 48.8443 28.4314 49.1086 28.1918C49.5404 27.7997 50.076 27.6836 50.7226 27.2842C51.9826 26.0935 50.4394 24.9222 50.2766 24.5616C49.2761 23.6081 48.5706 23.2475 47.7636 22.6352C47.1571 22.1753 47.5182 21.8486 47.4474 21.6042C47.2751 21.0016 47.3483 19.7407 46.8787 19.2736C46.7867 19.1816 46.7418 19.0316 46.6852 18.9033C46.5507 18.6008 46.4091 18.2983 46.2911 17.9909C45.9466 17.0882 45.3473 16.442 44.637 15.8176C44.3657 15.52 44.1085 15.1352 43.7828 14.8617C43.4832 14.6753 43.2141 14.3486 42.8956 14.3026C42.4685 14.2421 42.4119 13.7775 41.9753 13.7266C41.6521 13.6903 41.2863 13.4725 39.9224 13.1773C39.7006 13.1289 39.5284 12.9401 39.3184 12.8602C39.0376 12.7538 38.7143 12.7465 38.509 12.4682C38.4736 12.4222 38.3698 12.3811 38.3202 12.4004C37.6996 12.6231 36.9965 12.3811 36.3995 12.7683C36.2272 12.8796 36.0054 12.9522 35.8025 12.9643C35.1276 13.0006 34.4858 13.2063 33.8416 13.3781C33.4711 13.4774 33.1243 13.6807 32.7797 13.867C31.5268 14.3438 30.1959 15.4401 29.5447 15.8975C29.3323 16.0451 29.1294 16.2097 28.9288 16.3743C28.6598 16.5993 28.0628 17.4295 27.9401 17.9522C27.6215 18.1821 27.3549 18.4508 27.1968 18.8525C26.9773 19.4043 26.6871 19.9246 26.4393 20.4643C26.3332 20.6991 26.2529 20.9483 26.1727 21.1928C26.0311 21.6211 25.8636 22.0447 25.7668 22.4827C25.6795 22.8893 25.6583 23.3128 25.6276 23.7315C25.5969 24.1356 25.5828 24.5422 25.5828 24.9464C25.5828 24.9706 25.5828 25.0529 25.5828 25.1666C25.5191 25.5369 25.4672 25.9362 25.4624 26.0113C25.4318 26.6792 25.3846 27.3544 25.4318 28.0175C25.4695 28.5451 25.2501 28.9396 25.0047 29.3462C24.9575 29.4261 24.8773 29.4866 24.8112 29.5543C24.0396 30.336 24.0797 31.2751 24.3982 32.2116C24.469 32.4198 24.8725 32.6085 25.1345 32.6279C25.6087 32.6642 26.1043 32.7707 26.5597 32.4101C26.8641 32.1681 27.0411 32.2867 27.1378 32.6932C27.3242 33.4604 27.3974 34.2518 27.7678 34.9754C27.9684 35.3675 27.6215 35.8176 27.1284 35.9459C27.0835 35.958 27.0269 35.9604 27.0009 35.9919C26.7414 36.275 26.4818 36.5606 26.26 36.897C26.2175 36.9599 26.0453 37.2988 25.9249 37.5287C25.5781 38.0587 25.3917 38.8283 25.2454 39.414C25.1439 39.8205 25.0236 40.0529 25.0542 40.4086C25.0873 40.7983 25.5639 42.3617 25.5875 42.4125C25.8447 42.9449 26.0783 43.4967 26.621 43.8162C26.798 43.9203 26.9325 44.1066 27.0765 44.2639C27.5555 44.7867 27.5625 45.1932 27.0552 45.6845C26.9042 45.8297 26.6635 45.9023 26.7154 46.1637C26.7603 46.3912 26.8122 46.6647 26.9585 46.8147C27.7112 47.5843 28.294 48.504 29.1246 49.2107C29.5541 49.5761 29.9434 49.9633 30.4767 50.1594C30.5617 50.1908 30.6702 50.2513 30.6985 50.3264C30.8519 50.7329 31.22 50.7789 31.548 50.8854C31.9751 51.0234 32.3951 51.154 32.7939 51.3936C33.3343 51.7204 33.9053 52.0132 34.4952 52.2237C34.8232 52.3399 35.2432 52.3423 35.5736 52.2407C35.8284 52.1608 35.9747 52.1874 36.1281 52.3496C36.6 52.8457 37.2183 52.9861 37.8436 53.0805C38.207 53.1337 38.5821 53.1216 38.9526 53.1119C39.3254 53.0998 39.6959 53.0587 40.0664 53.0224C40.3165 52.9982 40.3165 52.9909 40.1844 52.6497C40.1773 52.6279 40.1513 52.6013 40.156 52.5892C40.3896 52.0108 40.1938 51.3525 40.5784 50.7765C40.9654 50.1957 41.232 49.5398 40.9583 48.7581C40.8592 48.4749 40.9442 48.02 41.1141 47.7634C41.3382 47.4246 41.3453 47.064 41.442 46.7131C41.4586 46.6526 41.4444 46.5824 41.4704 46.5292C41.5459 46.3694 41.4845 46.2944 41.3028 46.2775C41.3783 46.004 41.5294 45.7208 41.5176 45.4449C41.4916 44.7891 41.7889 44.1913 41.8314 43.5548C41.9211 43.5282 41.9895 43.4943 42.0013 43.4483C42.1193 43.0345 42.1452 42.5892 42.183 42.1536C42.1971 41.9841 42.1216 41.8051 42.1429 41.6356C42.1547 41.5292 42.1853 41.4251 42.2184 41.321C42.2726 41.2654 42.308 41.1782 42.3175 41.0427C42.0626 39.8326 42.7871 39.2252 43.4973 38.6855C43.8536 38.4144 44.4011 38.4072 44.8659 38.3636C45.3591 38.3176 45.857 38.3636 46.3525 38.3781C46.5012 38.383 46.6852 38.3757 46.789 38.4604C47.3955 38.9662 48.0043 38.5306 48.5706 38.3564C49.1676 38.1797 49.5923 37.6158 50.0595 37.1753C50.1846 37.0713 50.3191 36.9478 50.1067 36.8002C50.0808 36.7833 50.0902 36.6574 50.1232 36.6114C50.699 35.8539 49.8637 33.6879 49.2714 32.5408C48.9033 31.8268 49.3965 31.4275 49.1204 31.033C48.8962 30.7112 49.6135 30.428 49.1935 29.8351V29.8472Z" fill="#484848"/>
</g>
<defs>
<clipPath id="clip0_386_996">
<rect width="75.391" height="75" fill="white"/>
</clipPath>
</defs>
</svg>
