<svg width="25" height="19" viewBox="0 0 25 19" fill="none" xmlns="http://www.w3.org/2000/svg">
<path d="M22.89 0H1.58C0.710002 0 0 0.71 0 1.58V16.48C0 17.35 0.710002 18.06 1.58 18.06H22.89C23.76 18.06 24.47 17.35 24.47 16.48V1.58C24.47 0.71 23.76 0 22.89 0ZM1.58 1.5H22.89C22.89 1.5 22.97 1.53 22.97 1.58V2.47L12.24 7.59L1.51 2.47V1.58C1.51 1.58 1.54 1.5 1.59 1.5H1.58ZM22.89 16.56H1.58C1.58 16.56 1.5 16.53 1.5 16.48V4.13L11.91 9.1C12.01 9.15 12.12 9.17 12.23 9.17C12.34 9.17 12.45 9.15 12.55 9.1L22.96 4.13V16.47C22.96 16.47 22.93 16.55 22.88 16.55L22.89 16.56Z" fill="#5B5B5B"/>
</svg>
