<svg width="21" height="21" viewBox="0 0 21 21" fill="none" xmlns="http://www.w3.org/2000/svg">
<path d="M4.7 0.23C4.56 0.08 4.37 0 4.17 0H4.16C3.98 0 3.82 0.07 3.7 0.2L0.55 3.35C0.2 3.71 0 4.19 0 4.69C0.04 6.28 0.3 7.86 0.77 9.38C2.57 16 9.27 20.99 16.36 21C16.85 21 17.31 20.79 17.65 20.45L20.78 17.35C21.07 17.08 21.08 16.62 20.81 16.33L20.79 16.31L16.89 12.41V12.53L16.15 11.69C16.03 11.56 15.86 11.49 15.69 11.49C15.49 11.49 15.3 11.57 15.16 11.7L13.13 13.73L12.88 13.64C11.56 13.25 10.33 12.59 9.27 11.7C8.39 10.65 7.74 9.42 7.35 8.11L7.26 7.86L9.28 5.84C9.43 5.7 9.51 5.5 9.51 5.3C9.51 5.12 9.44 4.96 9.31 4.84L4.7 0.23ZM7.47 5.61C7.38 5.72 7.16 5.94 6.9 6.18C6.48 6.54 6.11 6.95 5.78 7.39C5.72 7.69 5.76 8.01 5.9 8.28C6.08 8.74 6.23 9.21 6.35 9.68C7.12 12.04 8.97 13.89 11.34 14.65C12.57 15.04 13.21 15.24 13.26 15.26C13.48 15.29 13.7 15.22 13.86 15.06L15.65 13.26L19.23 16.81L16.49 19.55H16.31C8.12 19.48 1.51 12.86 1.44 4.68V4.5L4.18 1.76L7.7 5.31L7.46 5.6L7.47 5.61Z" fill="#5B5B5B"/>
</svg>
