<svg width="21" height="21" viewBox="0 0 21 21" fill="none" xmlns="http://www.w3.org/2000/svg">
<path d="M15.3382 14.3082L15.5782 14.0182C18.5182 10.2182 17.8182 4.75823 14.0182 1.81823C10.2182 -1.12177 4.75823 -0.421771 1.81823 3.37823C-1.12177 7.17823 -0.421772 12.6382 3.37823 15.5782C6.50823 17.9982 10.8882 17.9982 14.0282 15.5782L14.3182 15.3382L19.3282 20.3682L20.3582 19.3182L15.3482 14.3082H15.3382ZM8.82822 15.9482C7.79822 15.9482 6.77822 15.7382 5.82822 15.3382C2.15822 13.7482 0.468236 9.47823 2.05824 5.79823C3.64824 2.12823 7.91823 0.438229 11.5982 2.02823C15.2382 3.60823 16.9382 7.80823 15.4082 11.4682V11.4982C14.3182 14.1782 11.7182 15.9382 8.82822 15.9482Z" fill="#5B5B5B"/>
</svg>
